<?xml version="1.0" encoding="UTF-8"?>
<svg id="Layer_1" data-name="Layer 1" xmlns="http://www.w3.org/2000/svg" viewBox="0 0 111.74 81.55">
  <path d="m39.05,35.67l-5.94,9.66L14.95,17.42l-4.59-7.04c-1.68-2.59-4.24-4.41-7.16-5.19-1.04-.29-2.11-.42-3.2-.42V0h15.84l11.34,17.42,11.87,18.25Z"/>
  <path d="m111.74,0v4.77c-1.1,0-2.17.14-3.2.42-2.92.78-5.48,2.6-7.16,5.19l-4.59,7.04h-.27l-20.96,34-5.94,9.64-6.68,10.85-5.94,9.64-6.18-9.49-6.95-10.68-6.18-9.49,5.94-9.66,6.68-10.83,5.96-9.66L69.67,0h16.4v4.9c-1.1,0-2.17.14-3.2.42-2.92.78-5.97,2.65-7.66,5.24l-4.35,7.04-8.41,13.64-5.96,9.64-6.68,10.85,6.95,10.68,6.68-10.85,5.96-9.66L95.23,0h16.52Z"/>
  <path d="m29.17,5.19c-1.04-.29-2.11-.42-3.2-.42V0h15.84l9.88,15.18-1.38,2.24-4.57,7.42-4.81-7.42-4.59-7.04s-.02-.02-.02-.03c-1.68-2.57-4.24-4.38-7.15-5.16Z"/>
  <polygon points="75.2 10.56 70.9 17.6 70.86 17.6 75.2 10.56"/>
</svg>