<?xml version="1.0" encoding="UTF-8"?>
<svg id="Layer_1" data-name="Layer 1" xmlns="http://www.w3.org/2000/svg" viewBox="0 0 364.17 81.55">
  <g>
    <path d="m39.05,35.67l-5.94,9.66L14.95,17.42l-4.59-7.04c-1.68-2.59-4.24-4.41-7.16-5.19-1.04-.29-2.11-.42-3.2-.42V0h15.84l11.34,17.42,11.87,18.25Z"/>
    <path d="m111.74,0v4.77c-1.1,0-2.17.14-3.2.42-2.92.78-5.48,2.6-7.16,5.19l-4.59,7.04h-.27l-20.96,34-5.94,9.64-6.68,10.85-5.94,9.64-6.18-9.49-6.95-10.68-6.18-9.49,5.94-9.66,6.68-10.83,5.96-9.66L69.67,0h16.4v4.9c-1.1,0-2.17.14-3.2.42-2.92.78-5.97,2.65-7.66,5.24l-4.35,7.04-8.41,13.64-5.96,9.64-6.68,10.85,6.95,10.68,6.68-10.85,5.96-9.66L95.23,0h16.52Z"/>
    <path d="m29.17,5.19c-1.04-.29-2.11-.42-3.2-.42V0h15.84l9.88,15.18-1.38,2.24-4.57,7.42-4.81-7.42-4.59-7.04s-.02-.02-.02-.03c-1.68-2.57-4.24-4.38-7.15-5.16Z"/>
    <polygon points="75.2 10.56 70.9 17.6 70.86 17.6 75.2 10.56"/>
  </g>
  <g>
    <path d="m132.15,66.56l-20.18-39.91h9.31l10.87,22.34,10.87-22.34h9.23l-20.1,39.91Z"/>
    <path d="m183.45,32.08v-5.44h8.94v37.53h-8.94v-5.44c-1.27,3.65-5.81,6.25-11.99,6.25-5.29,0-9.75-1.86-13.4-5.58-3.57-3.8-5.36-8.41-5.36-14s1.79-10.2,5.36-13.92c3.65-3.8,8.12-5.66,13.4-5.66,6.18,0,10.72,2.61,11.99,6.25Zm-2.68,21.52c2.23-2.16,3.35-4.91,3.35-8.19s-1.12-6.03-3.35-8.19c-2.16-2.16-4.91-3.28-8.12-3.28s-5.81,1.12-7.97,3.28c-2.08,2.16-3.13,4.91-3.13,8.19s1.04,6.03,3.13,8.19c2.16,2.16,4.77,3.28,7.97,3.28s5.96-1.12,8.12-3.28Z"/>
    <path d="m200.13,64.17V12.27h8.94v51.9h-8.94Z"/>
    <path d="m215.32,45.41c0-5.88,1.79-10.65,5.44-14.22,3.65-3.65,8.34-5.44,14-5.44s9.83,1.79,13.18,5.44c3.43,3.57,5.14,8.04,5.14,13.33,0,1.12-.07,2.23-.15,3.2h-28.74c.3,5.96,4.69,9.75,11.32,9.75,5.88,0,10.35-1.42,13.48-4.32v8.34c-3.65,2.53-8.27,3.8-13.85,3.8-5.88,0-10.72-1.79-14.37-5.29-3.65-3.57-5.44-8.34-5.44-14.22v-.37Zm28.67-4.02c0-2.16-.89-4.1-2.68-5.66s-3.95-2.38-6.55-2.38c-2.75,0-5.14.82-7.15,2.38s-3.05,3.43-3.2,5.66h19.58Z"/>
    <path d="m261.63,64.17v-29.41h-4.84v-8.12h4.84v-14.37h8.94v14.37h8.12v8.12h-8.12v29.41h-8.94Z"/>
    <path d="m284.12,64.17V26.65h8.86v5.36c1.79-3.65,6.03-6.11,11.39-6.11,8.94,0,14.22,5.73,14.22,15.04v23.23h-8.94v-21.97c0-5.14-2.98-8.34-7.97-8.34s-8.71,3.57-8.71,8.71v21.59h-8.86Z"/>
    <path d="m355.23,32.08v-5.44h8.94v31.27c0,4.84-.37,8.71-1.19,11.47-.74,2.83-2.46,5.21-5.21,7.22-3.57,2.61-8.12,3.95-13.55,3.95-7.07,0-12.66-1.42-16.61-4.24v-8.49c3.43,3.35,8.49,5.06,15.26,5.06,3.95,0,6.93-.74,8.94-2.23,2.46-1.71,3.65-4.84,3.65-9.38v-2.31c-1.79,3.2-6.25,5.51-12.21,5.51-5.29,0-9.75-1.86-13.4-5.51-3.57-3.65-5.36-8.26-5.36-13.7s1.79-10.05,5.44-13.78c3.65-3.8,8.04-5.66,13.33-5.66,6.18,0,10.72,2.61,11.99,6.25Zm-2.68,21.3c2.23-2.16,3.35-4.91,3.35-8.12s-1.12-5.88-3.35-8.04c-2.16-2.16-4.92-3.28-8.12-3.28s-5.81,1.12-7.97,3.28c-2.08,2.16-3.13,4.84-3.13,8.04s1.04,5.96,3.13,8.12c2.16,2.16,4.77,3.2,7.97,3.2s5.96-1.04,8.12-3.2Z"/>
  </g>
</svg>